<?xml version="1.0" encoding="UTF-8" standalone="no"?>
<!-- Created with Inkscape (http://www.inkscape.org/) -->

<svg
   width="76.223mm"
   height="213.63963mm"
   viewBox="0 0 76.223 213.63966"
   version="1.1"
   id="svg5"
   xmlns="http://www.w3.org/2000/svg"
   xmlns:svg="http://www.w3.org/2000/svg">
  <defs
     id="defs2" />
  <g
     id="layer1"
     transform="translate(-70.888261,-52.890819)">
    <path
       style="fill:#000000;stroke-width:0.254"
       d="m 104.36597,255.1195 c -2.22535,-0.2337 -3.10588,-0.72809 -3.10588,-1.74381 0,-0.89459 0.21501,-1.06263 2.286,-1.78658 0.90805,-0.31743 2.45526,-1.07257 3.43824,-1.67813 2.00457,-1.23487 5.45176,-4.40454 5.45176,-5.01284 0,-0.53282 -1.73727,-1.06391 -5.19219,-1.5873 -3.96978,-0.60137 -5.93862,-1.24889 -6.13128,-2.01651 -0.37005,-1.47439 0.23595,-1.90139 3.44947,-2.4304 2.52208,-0.41518 3.60604,-0.81965 4.82755,-1.80129 1.13522,-0.91229 1.22914,-1.3303 0.50645,-2.2542 -0.27319,-0.34925 -0.49925,-0.81892 -0.50236,-1.04373 -0.005,-0.39751 1.51737,-3.77996 2.04595,-4.54427 0.18778,-0.27152 0.12794,-0.96487 -0.20825,-2.413 l -0.47174,-2.032 -2.0193,0.0324 c -1.11062,0.0178 -2.77935,0.11814 -3.7083,0.22296 -1.63645,0.18469 -1.71951,0.16609 -2.66968,-0.59748 -0.91244,-0.73325 -1.19181,-0.8066 -4.01446,-1.05405 -5.63234,-0.49378 -6.93348,-1.14391 -10.54986,-5.27146 -0.68395,-0.78065 -1.24052,-1.11499 -2.413,-1.44958 -3.89071,-1.11031 -6.89749,-2.83981 -9.611807,-5.52873 -0.94981,-0.94094 -0.97133,-1.00211 -0.80761,-2.29636 0.0925,-0.73132 0.43943,-2.47267 0.77091,-3.86967 0.33149,-1.397 0.77859,-3.30979 0.993557,-4.25064 0.70081,-3.0673 1.63156,-9.15464 1.79676,-11.75136 0.0889,-1.397 0.26181,-2.94005 0.3843,-3.429 0.12248,-0.48895 0.34154,-2.20345 0.4868,-3.81 0.32393,-3.58279 0.9315,-8.33438 1.41279,-11.049 0.19815,-1.1176 0.53885,-3.2893 0.7571,-4.826 0.44122,-3.10655 0.65616,-4.11202 2.44641,-11.44373 0.68408,-2.80156 1.24379,-5.4516 1.24379,-5.88897 0,-0.43737 0.12664,-1.11699 0.28142,-1.51026 0.32787,-0.83307 1.94829,-7.09365 2.22713,-8.60464 0.24046,-1.30304 0.13411,-1.60894 -0.66501,-1.91276 -0.6105,-0.23211 -0.63566,-0.31734 -0.4953,-1.67733 0.19247,-1.86489 -0.0809,-2.36331 -1.29608,-2.36331 -0.67088,0 -1.03822,-0.14772 -1.26322,-0.508 -0.17449,-0.2794 -0.58211,-0.508 -0.90582,-0.508 -0.32372,0 -0.85702,-0.28575 -1.18512,-0.635 -0.32811,-0.34925 -0.84489,-0.635 -1.14841,-0.635 -0.30353,0 -0.81087,-0.22463 -1.12743,-0.49918 -0.34217,-0.29677 -0.927034,-0.49995 -1.39596,-0.63528 -0.978961,-0.28253 -1.085471,-0.29163 -1.152242,-0.69165 -0.07151,-0.42842 0.216877,-0.60015 0.468071,-0.75645 0.379753,-0.23629 0.563129,-0.10504 0.550141,-1.03065 0.002,-0.31778 0.26509,-1.03499 0.58398,-1.59378 0.60044,-1.0522 1.04382,-1.19263 2.39635,-0.75899 0.88642,0.2842 0.826085,-0.59807 -0.06809,-0.90978 -1.07498,-0.37474 -0.679155,-1.19762 0.349571,-1.26206 l 0.777714,-0.0487 -0.2337,-2.62442 c -0.131924,-1.48148 0.12843,-2.42347 0.40898,-2.98109 0.56791,-1.12874 2.14107,-2.71788 2.69057,-2.71788 0.6529,0 0.57966,0.19051 -0.54027,1.4055 -0.5482,0.59472 -1.10233,1.46475 -1.23142,1.9334 -0.28053,1.0185 0.07113,3.84037 0.45411,4.41289 0.314861,0.47069 -0.185244,0.54588 2.53603,0.14198 1.234231,-0.18319 1.618642,-0.0404 3.46987,1.02435 0.870455,0.50066 1.35176,0.73387 2.33709,0.73387 1.48287,0 1.63919,-0.16622 3.22474,-3.429 0.94667,-1.94805 1.6158,-2.95291 3.63644,-5.461 0.50647,-0.62864 1.200725,-1.69875 1.542785,-2.37801 0.39251,-0.77946 1.36884,-1.90376 2.64686,-3.048 2.76159,-2.47252 3.20456,-2.91466 4.18209,-4.1742 0.66382,-0.85534 0.78386,-1.16715 0.55532,-1.44252 -0.2218,-0.26725 -0.19386,-0.63906 0.11678,-1.55403 0.22458,-0.6615 0.35656,-1.33762 0.2933,-1.50249 -0.0633,-0.16488 -0.66837,-0.449585 -1.34466,-0.632679 -0.67629,-0.183093 -1.34392,-0.417657 -1.48362,-0.521254 -0.1397,-0.103593 -0.74762,-0.334899 -1.35092,-0.514007 -1.37162,-0.40721 -1.82408,-1.038806 -1.82408,-2.546225 0,-0.717159 -0.14337,-1.301367 -0.36438,-1.484785 -0.64082,-0.531835 -1.41361,-2.286457 -1.41361,-3.209582 0,-0.787456 -0.0682,-1.065058 -0.919615,-1.278374 -0.949151,-0.2378 -0.895822,-0.70137 -0.76903,-1.312144 0.105089,-0.50623 0.429093,-1.218228 0.64585,-1.5978 0.703545,-1.232001 1.104225,-2.566837 0.662665,-3.62363 -0.210035,-0.502673 -0.381875,-1.148402 -0.381875,-1.43495 0,-0.409415 -0.1224,-0.493202 -0.5715,-0.391213 -3.13427,0.711771 -4.35733,0.810115 -5.00206,0.402194 -0.29504,-0.186667 -0.30931,-0.357574 -0.0731,-0.875891 0.20849,-0.457584 1.06229,-1.019511 2.9499,-1.941482 2.52645,-1.233996 3.148835,-1.751033 2.79565,-2.322485 -0.20472,-0.331239 -0.66497,-4.953498 -0.70364,-7.066442 -0.123263,-1.809401 -0.11265,-1.611126 1.112805,-2.203773 0.62865,-0.304023 1.94309,-0.837209 2.92099,-1.184859 6.97798,-2.480706 8.30951,-2.716007 13.11229,-2.317133 5.11292,0.424632 5.83521,0.979493 6.43736,4.94518 0.2014,1.326372 0.55155,3.223905 0.77811,4.216742 l 0.41194,1.805155 2.20315,0.148255 c 2.48996,0.167556 3.85414,0.560083 3.85414,1.108979 0,1.113582 -0.98671,1.833456 -3.2385,2.362703 -0.73342,0.17238 -1.33143,0.387744 -1.32889,0.478584 0.006,0.21669 1.3698,2.514393 2.43779,4.203211 0.73275,1.1587 0.89587,2.471564 0.94464,3.302 0.0473,0.805421 -0.13988,1.940493 -0.65113,2.819955 -0.32481,0.5588 -1.01611,1.292324 -1.53623,1.630055 -0.61403,0.398709 -0.93562,0.808161 -0.94568,1.167133 -0.0361,1.288073 0.20471,0.822212 -2.11406,1.919374 -0.67796,0.320789 -1.28514,0.696237 -1.35857,0.815045 -0.0734,0.118811 0.53918,-0.202643 1.4269,-0.571675 2.4696,-1.026627 1.84408,-0.879254 2.48703,-0.61386 1.39274,0.574889 2.49975,1.034667 3.83502,2.848808 1.77199,2.407499 2.37107,3.29974 1.79755,4.34347 -0.40234,0.7322 0.10468,0.92514 1.87344,2.76369 3.69448,3.84029 5.28639,7.13137 6.65813,13.76496 0.24555,1.18745 0.60541,2.81316 0.79969,3.61268 0.7633,3.14111 1.14245,6.6372 1.24723,11.50032 0.0602,2.794 0.22432,7.0231 0.36472,9.398 0.1404,2.3749 0.31378,7.55974 0.38529,11.52187 0.12397,6.86951 0.10657,7.24178 -0.37494,8.02088 -0.58384,0.94468 -1.46043,1.41225 -2.6476,1.41225 -0.63596,0 -0.90273,0.14584 -1.11368,0.60883 -0.15257,0.33485 -0.70521,0.93493 -1.22809,1.3335 -0.76367,0.58211 -1.18738,0.71729 -2.15383,0.68712 l -1.20312,-0.0376 -0.25638,2.06956 c -1.43457,11.58035 -1.59166,13.94641 -1.57921,23.78655 0.006,4.95935 0.13272,10.3886 0.28097,12.065 0.14826,1.6764 0.23423,6.41553 0.19104,10.53138 l -0.0785,7.48337 -0.762,0.36815 c -0.4191,0.20249 -0.93345,0.44709 -1.143,0.54358 -0.20955,0.0965 -0.41959,0.44948 -0.46676,0.78446 -0.0472,0.335 -0.28966,0.83766 -0.53887,1.11706 -0.24921,0.2794 -0.53797,1.02235 -0.6417,1.651 -0.25419,1.54049 -0.6009,9.15216 -0.69792,15.32232 -0.0752,4.78059 -0.10646,5.05686 -0.61839,5.461 -0.3305,0.26091 -0.67788,1.01557 -0.89748,1.94968 -0.35143,1.49492 -0.38609,1.53805 -1.81663,2.26004 -1.17444,0.59274 -1.91577,0.76581 -3.80788,0.889 -2.20808,0.14374 -2.44819,0.21672 -3.98845,1.21207 -1.59637,1.03162 -1.74442,1.07284 -5.70291,1.58856 -4.30099,0.56035 -4.53682,0.56873 -7.43512,0.26439 z m 2.3731,-144.96546 c 0.43513,-0.29855 2.79653,-3.43678 4.17537,-5.54895 1.39587,-2.13826 1.51953,-2.7188 0.75294,-3.53479 -0.45487,-0.48419 -0.61848,-0.51562 -1.40751,-0.27037 -1.2939,0.40217 -1.45766,1.28822 -0.39894,2.15848 0.44095,0.36246 0.8007,0.80337 0.79944,0.97979 -0.001,0.17642 -0.39812,0.74792 -0.88191,1.27 -1.02343,1.10441 -3.67989,4.67035 -3.68731,4.94973 -0.006,0.24049 0.29437,0.23869 0.64792,-0.004 z m 7.53499,-11.23561 c 0.70419,-0.2794 1.16016,-0.460541 1.27151,-0.508 3.96946,-1.691858 5.28036,-2.362827 5.1644,-2.478781 -0.0584,-0.05836 -1.18173,0.353446 -2.49637,0.915124 -1.31464,0.561678 -3.06,1.256627 -3.87858,1.544333 -1.60021,0.562429 -2.31114,1.035324 -1.55646,1.035324 0.24423,0 0.89852,-0.271141 1.4955,-0.508 z"
       id="path357" />
  </g>
</svg>
